<svg width="52" height="52" viewBox="0 0 52 52" fill="none" xmlns="http://www.w3.org/2000/svg">
<rect width="52" height="52" rx="26" fill="#141414"/>
<path d="M34.4705 16.0001H17.5305C17.3401 15.9975 17.151 16.0324 16.9741 16.1028C16.7972 16.1733 16.6359 16.2779 16.4993 16.4107C16.3628 16.5434 16.2538 16.7018 16.1785 16.8767C16.1032 17.0517 16.0632 17.2397 16.0605 17.4301V34.5701C16.0632 34.7606 16.1032 34.9486 16.1785 35.1235C16.2538 35.2985 16.3628 35.4568 16.4993 35.5896C16.6359 35.7224 16.7972 35.827 16.9741 35.8975C17.151 35.9679 17.3401 36.0028 17.5305 36.0001H34.4705C34.661 36.0028 34.85 35.9679 35.027 35.8975C35.2039 35.827 35.3652 35.7224 35.5017 35.5896C35.6383 35.4568 35.7473 35.2985 35.8226 35.1235C35.8978 34.9486 35.9379 34.7606 35.9405 34.5701V17.4301C35.9379 17.2397 35.8978 17.0517 35.8226 16.8767C35.7473 16.7018 35.6383 16.5434 35.5017 16.4107C35.3652 16.2779 35.2039 16.1733 35.027 16.1028C34.85 16.0324 34.661 15.9975 34.4705 16.0001ZM22.0905 32.7401H19.0905V23.7401H22.0905V32.7401ZM20.5905 22.4801C20.1768 22.4801 19.78 22.3158 19.4875 22.0232C19.1949 21.7307 19.0305 21.3339 19.0305 20.9201C19.0305 20.5064 19.1949 20.1096 19.4875 19.8171C19.78 19.5245 20.1768 19.3601 20.5905 19.3601C20.8102 19.3352 21.0327 19.357 21.2434 19.424C21.4541 19.4911 21.6483 19.6018 21.8132 19.7491C21.9781 19.8964 22.1101 20.0768 22.2004 20.2786C22.2908 20.4804 22.3375 20.699 22.3375 20.9201C22.3375 21.1412 22.2908 21.3599 22.2004 21.5617C22.1101 21.7635 21.9781 21.9439 21.8132 22.0912C21.6483 22.2385 21.4541 22.3492 21.2434 22.4163C21.0327 22.4833 20.8102 22.5051 20.5905 22.4801ZM32.9105 32.7401H29.9105V27.9101C29.9105 26.7001 29.4805 25.9101 28.3905 25.9101C28.0532 25.9126 27.7247 26.0184 27.4494 26.2133C27.174 26.4082 26.965 26.6828 26.8505 27.0001C26.7723 27.2352 26.7384 27.4827 26.7505 27.7301V32.7301H23.7505C23.7505 32.7301 23.7505 24.5501 23.7505 23.7301H26.7505V25.0001C27.0231 24.5272 27.4195 24.1377 27.897 23.8733C28.3745 23.609 28.9151 23.48 29.4605 23.5001C31.4605 23.5001 32.9105 24.7901 32.9105 27.5601V32.7401Z" fill="white"/>
</svg>
