<svg width="25" height="20" viewBox="0 0 25 20" fill="none" xmlns="http://www.w3.org/2000/svg">
<path d="M8.30016 19.75C17.3545 19.75 22.3083 12.2467 22.3083 5.74186C22.3083 5.53092 22.3036 5.3153 22.2942 5.10436C23.2579 4.40746 24.0895 3.54425 24.75 2.5553C23.8525 2.9546 22.8996 3.21538 21.9239 3.32874C22.9513 2.71291 23.7205 1.74547 24.0891 0.605767C23.1226 1.17856 22.0656 1.58261 20.9634 1.80061C20.2208 1.01156 19.239 0.489116 18.1697 0.314051C17.1004 0.138986 16.0032 0.32105 15.0477 0.832096C14.0923 1.34314 13.3318 2.15471 12.8838 3.14131C12.4359 4.12792 12.3254 5.23462 12.5695 6.2903C10.6125 6.19209 8.69794 5.6837 6.94998 4.7981C5.20203 3.91249 3.65969 2.66944 2.42297 1.14952C1.7944 2.23324 1.60206 3.51565 1.88503 4.73609C2.168 5.95654 2.90506 7.02345 3.94641 7.71999C3.16463 7.69517 2.39998 7.48468 1.71563 7.10592V7.16686C1.71492 8.30415 2.1081 9.40659 2.82831 10.2868C3.54852 11.167 4.55132 11.7706 5.66625 11.995C4.94206 12.1931 4.18198 12.222 3.44484 12.0794C3.75945 13.0574 4.37157 13.9129 5.19577 14.5263C6.01997 15.1398 7.01512 15.4806 8.04234 15.5012C6.29842 16.8711 4.14417 17.6141 1.92656 17.6106C1.53329 17.61 1.1404 17.5859 0.75 17.5384C3.00286 18.9837 5.62353 19.7514 8.30016 19.75Z" fill="white"/>
</svg>
