<svg width="52" height="52" viewBox="0 0 52 52" fill="none" xmlns="http://www.w3.org/2000/svg">
<rect width="52" height="52" rx="26" fill="#141414"/>
<path d="M36.9991 23.71C37.0485 22.2786 36.7355 20.858 36.0891 19.58C35.6505 19.0556 35.0418 18.7017 34.3691 18.58C31.5866 18.3275 28.7926 18.224 25.9991 18.27C23.2157 18.2219 20.4318 18.3221 17.6591 18.57C17.1109 18.6697 16.6036 18.9268 16.1991 19.31C15.2991 20.14 15.1991 21.56 15.0991 22.76C14.954 24.9175 14.954 27.0824 15.0991 29.24C15.128 29.9154 15.2285 30.5858 15.3991 31.24C15.5196 31.745 15.7636 32.2123 16.1091 32.6C16.5163 33.0034 17.0354 33.2752 17.5991 33.38C19.755 33.6461 21.9273 33.7564 24.0991 33.71C27.5991 33.76 30.669 33.71 34.299 33.43C34.8765 33.3316 35.4102 33.0595 35.8291 32.65C36.109 32.3699 36.3181 32.0271 36.4391 31.65C36.7967 30.5526 36.9723 29.4041 36.959 28.25C36.9991 27.69 36.9991 24.31 36.9991 23.71ZM23.739 28.85V22.66L29.659 25.77C27.9991 26.69 25.809 27.73 23.739 28.85Z" fill="white"/>
</svg>
