<svg width="24" height="25" viewBox="0 0 24 25" fill="none" xmlns="http://www.w3.org/2000/svg">
<g clip-path="url(#clip0_102_9713)">
<path d="M2.83729 5.76614C2.61265 6.0303 2.38735 6.29381 2.16798 6.55138C1.73715 6.1166 1.36166 5.73847 1 5.37418C1.917 4.45586 2.85244 3.51976 3.77602 2.59552C4.70026 3.52174 5.63505 4.45784 6.55072 5.3755C6.19302 5.7332 5.81489 6.11067 5.40382 6.52174C5.16601 6.25626 4.91041 5.97102 4.59025 5.61463V9.40448C6.31555 7.67655 8.08234 5.90843 9.8386 4.14954C9.37549 4.14954 8.85112 4.11726 8.33333 4.15942C7.88472 4.19565 7.57115 4.04809 7.27866 3.71739C6.92358 3.31621 6.51976 2.95784 6.08235 2.52767C6.24769 2.51515 6.33794 2.50264 6.42885 2.50264C10.8215 2.50198 15.2141 2.5 19.6067 2.50264C21.0086 2.5033 22.0079 3.48024 22.0099 4.87352C22.0171 9.2892 22.0125 13.7042 22.0125 18.1199C22.0125 18.1812 22.0059 18.2431 21.9209 18.363C21.5231 17.9466 21.143 17.5112 20.72 17.1219C20.4453 16.8689 20.3347 16.6054 20.357 16.2339C20.3887 15.7141 20.365 15.191 20.365 14.6746C18.6008 16.4407 16.8544 18.1884 15.112 19.9328H18.9091C18.554 19.643 18.2615 19.4045 17.9743 19.17C18.4453 18.7167 18.8287 18.3478 19.2016 17.9881C20.0837 18.8801 21.0152 19.8215 21.9401 20.7563C21.0441 21.6456 20.1047 22.5784 19.1752 23.5007C18.8261 23.1449 18.4545 22.7668 18.0586 22.3636C18.2813 22.1673 18.5349 21.9433 18.7885 21.7194C18.7727 21.6805 18.7569 21.6416 18.7404 21.6034H18.3775C14.0507 21.6034 9.72398 21.6047 5.39723 21.6028C4.21278 21.6028 3.35903 21.0283 3.03294 19.9835C2.94335 19.6963 2.91765 19.3801 2.917 19.0764C2.90975 14.7708 2.91238 10.4651 2.91238 6.15942C2.91238 6.04348 2.91238 5.92688 2.91238 5.81094C2.88669 5.79579 2.861 5.78129 2.83531 5.76614H2.83729ZM4.56258 18.6831C9.40975 13.8353 14.249 8.99473 19.0935 4.14954C18.4032 4.14954 17.6937 4.14361 16.9842 4.15679C16.8933 4.15876 16.7879 4.24177 16.7154 4.31423C12.7167 8.30896 8.72003 12.3063 4.72596 16.3063C4.65415 16.3788 4.57115 16.4842 4.56917 16.5751C4.55599 17.2839 4.56192 17.9928 4.56192 18.6825L4.56258 18.6831ZM20.365 5.45784C15.5296 10.2918 10.695 15.1258 5.86693 19.9526C6.52569 19.9526 7.22464 19.9585 7.92358 19.9453C8.01449 19.9433 8.11858 19.8571 8.19104 19.7839C12.1963 15.7826 16.1996 11.7787 20.1996 7.77273C20.2721 7.70027 20.3557 7.59486 20.357 7.50395C20.3702 6.80567 20.3643 6.10672 20.3643 5.45784H20.365ZM20.365 10.0876C17.0758 13.3742 13.7833 16.664 10.4914 19.9526C11.1588 19.9526 11.857 19.9585 12.556 19.9453C12.6462 19.9433 12.749 19.8531 12.8221 19.78C15.2846 17.3221 17.7444 14.8617 20.2016 12.3986C20.2734 12.3261 20.3557 12.22 20.3577 12.1285C20.3709 11.4295 20.365 10.7306 20.365 10.087V10.0876ZM4.56258 14.0231C7.861 10.726 11.1462 7.44137 14.4387 4.14954C13.7793 4.14954 13.1028 4.14361 12.4262 4.15613C12.334 4.1581 12.2266 4.23518 12.1548 4.30633C9.67589 6.77997 7.20026 9.25626 4.72727 11.7352C4.65547 11.8076 4.5718 11.9124 4.56983 12.004C4.55665 12.6818 4.56258 13.3597 4.56258 14.0231Z" fill="#999999"/>
</g>
<defs>
<clipPath id="clip0_102_9713">
<rect width="21.0145" height="21" fill="white" transform="translate(1 2.5)"/>
</clipPath>
</defs>
</svg>
